<svg width="40" height="40" viewBox="0 0 40 40" fill="none" xmlns="http://www.w3.org/2000/svg">
<path d="M36.6173 30.5507C36.6173 31.1507 36.484 31.7673 36.2007 32.3673C35.9173 32.9673 35.5507 33.534 35.0673 34.0673C34.2507 34.9673 33.3507 35.6173 32.334 36.034C31.334 36.4507 30.2507 36.6673 29.084 36.6673C27.384 36.6673 25.5673 36.2673 23.6507 35.4507C21.734 34.634 19.8173 33.534 17.9173 32.1507C16.0007 30.7507 14.184 29.2006 12.4507 27.484C10.734 25.7507 9.18398 23.934 7.80065 22.034C6.43398 20.134 5.33398 18.234 4.53398 16.3507C3.73398 14.4507 3.33398 12.634 3.33398 10.9007C3.33398 9.76732 3.53398 8.68398 3.93398 7.68398C4.33398 6.66732 4.96732 5.73398 5.85065 4.90065C6.91732 3.85065 8.08398 3.33398 9.31732 3.33398C9.78398 3.33398 10.2507 3.43398 10.6673 3.63398C11.1007 3.83398 11.484 4.13398 11.784 4.56732L15.6507 10.0173C15.9507 10.434 16.1673 10.8173 16.3173 11.184C16.4673 11.534 16.5507 11.884 16.5507 12.2007C16.5507 12.6007 16.434 13.0007 16.2007 13.384C15.984 13.7673 15.6673 14.1673 15.2673 14.5673L14.0007 15.884C13.8173 16.0673 13.734 16.284 13.734 16.5507C13.734 16.684 13.7507 16.8007 13.784 16.934C13.834 17.0673 13.884 17.1673 13.9173 17.2673C14.2173 17.8173 14.734 18.534 15.4673 19.4007C16.2173 20.2673 17.0173 21.1507 17.884 22.034C18.784 22.9173 19.6507 23.734 20.534 24.484C21.4007 25.2173 22.1173 25.7173 22.684 26.0173C22.7673 26.0506 22.8673 26.1006 22.984 26.1506C23.1173 26.2006 23.2507 26.2173 23.4007 26.2173C23.684 26.2173 23.9007 26.1173 24.084 25.934L25.3507 24.684C25.7673 24.2673 26.1673 23.9507 26.5507 23.7507C26.934 23.5173 27.3173 23.4007 27.734 23.4007C28.0507 23.4007 28.384 23.4673 28.7507 23.6173C29.1173 23.7673 29.5007 23.984 29.9173 24.2673L35.434 28.184C35.8673 28.484 36.1673 28.834 36.3507 29.2506C36.5173 29.6673 36.6173 30.084 36.6173 30.5507Z" stroke="#EEFAE1" stroke-width="2" stroke-miterlimit="10"/>
</svg>
